# xmcd
#
# Track frame offsets:
# 150
# 22825
# 37213
# 54945
# 82561
# 116237
# 147339
# 178721
# 217503
# 246585
#
# Disc length: 3425 seconds
#
# Revision: 0
# Processed by: cddbd v1.4PL0 Copyright (c) Steve Scherf et al.
# Submitted via: Audion 3.0.2 (http://www.panic.com/audion/)
#
DISCID=7f0d5f0a
DTITLE=fas - tryer
DYEAR=1900
DGENRE=
TTITLE0=i
TTITLE1=i
TTITLE2=i
TTITLE3=i
TTITLE4=i
TTITLE5=i
TTITLE6=i
TTITLE7=i
TTITLE8=i
TTITLE9=i
EXTD=
EXTT0=
EXTT1=
EXTT2=
EXTT3=
EXTT4=
EXTT5=
EXTT6=
EXTT7=
EXTT8=
EXTT9=
PLAYORDER=
